<?xml version="1.0" encoding="UTF-8"?>
<svg version="1.1" xmlns="http://www.w3.org/2000/svg" width="1555" height="942">
<path d="M0 0 C6.50038784 1.77027853 11.8191661 3.56491593 16 9 C19.96948972 20.90846915 15.69913041 34.42674019 12.625 46.0625 C12.16995055 47.82843694 11.71495455 49.59438766 11.26000977 51.36035156 C4.37957906 77.74158172 -4.68215138 102.65049321 -17.00354004 126.98510742 C-24.74335516 142.34241438 -30.56041611 158.34024394 -36.375 174.5 C-37.2475506 176.91599592 -38.12027451 179.33192925 -38.99316406 181.74780273 C-40.78114499 186.70132374 -42.56460725 191.65644158 -44.34472656 196.61279297 C-46.08577793 201.46024652 -47.83236089 206.30563581 -49.58496094 211.14892578 C-51.6061149 216.73485129 -53.6175833 222.32416091 -55.62091064 227.91650391 C-56.36976717 230.00305241 -57.1216495 232.08851759 -57.87664795 234.17285156 C-58.92171587 237.06126834 -59.95460098 239.95375791 -60.984375 242.84765625 C-61.44691177 244.11422813 -61.44691177 244.11422813 -61.91879272 245.40638733 C-63.44316656 249.7337361 -64.47831564 253.34206407 -64 258 C-62.84670661 260.32183808 -62.84670661 260.32183808 -61.1875 262.375 C-59.01723257 265.37373018 -57.50598622 267.97435579 -56.375 271.5 C-55.92125 272.655 -55.4675 273.81 -55 275 C-52.97302532 275.77033304 -52.97302532 275.77033304 -51 276 C-50.64615234 275.21302734 -50.64615234 275.21302734 -50.28515625 274.41015625 C-43.07698914 260.89210426 -31.83090886 245.53067686 -18.0625 238.5 C-12.83837664 237.6470819 -7.46652862 237.31040449 -2.94140625 240.41015625 C-1.125 242.0625 -1.125 242.0625 0.4296875 243.72265625 C2.17980224 245.42068561 2.17980224 245.42068561 6 245 C7.98018317 242.87294429 7.98018317 242.87294429 9.75 240.0625 C16.93348332 229.74368418 24.81104773 220.5297208 36.625 215.4375 C43.04724104 214.60498727 47.90754968 214.85983072 53.3125 218.6875 C57.72520981 222.35303783 60.87223178 226.29732296 62 232 C62.65165981 240.09270549 61.28595809 248.03165253 60 256 C62.38564077 255.42415568 64.66682784 254.77772405 67 254 C67.68620031 252.67661368 68.34786461 251.34050052 69 250 C73.30916271 244.25444973 77.44846977 240.57465886 84.5625 238.76953125 C100.85369822 233.97922258 113.20679051 221.95166173 122.44873047 208.24511719 C124.01370846 205.98016006 125.65676425 203.80508864 127.34765625 201.6328125 C142.77271764 181.79298482 156.35184061 160.49483224 169.74121094 139.24780273 C241.69472451 25.4418246 241.69472451 25.4418246 275.46484375 17.4140625 C281.55059583 16.47779295 287.10670041 16.88206307 292.171875 20.58984375 C294.18975516 22.33155418 296.11129808 24.1196737 298 26 C298.79470703 26.66708984 298.79470703 26.66708984 299.60546875 27.34765625 C304.86370402 33.57800225 303.61905716 43.36551495 303 51 C300.32383949 73.22487586 291.45681942 94.96633144 284.25 116.0625 C284.02384003 116.72696136 283.79768005 117.39142273 283.56466675 118.07601929 C280.95977004 125.70666972 278.179734 133.1756168 274.81152344 140.50952148 C273.93515155 143.19901296 274.01239693 144.39323161 275 147 C277.62986315 146.60462194 280.25165938 146.18498127 282.875 145.75 C283.62136719 145.64042969 284.36773438 145.53085938 285.13671875 145.41796875 C287.58293145 145.03879514 287.58293145 145.03879514 291 144 C291.68952696 142.67834392 292.35088022 141.34196339 293 140 C294.7570675 138.06471821 296.52451429 136.21890791 298.3828125 134.38671875 C299.18245926 133.58775932 299.18245926 133.58775932 299.9982605 132.7726593 C301.12733517 131.64660079 302.25883441 130.5229688 303.39257812 129.40161133 C305.10335871 127.70891256 306.80617492 126.00852511 308.5078125 124.30664062 C313.61678632 119.21442398 318.74606312 114.20634473 324.23388672 109.51879883 C327.23819668 106.93519193 330.10993381 104.20984572 333 101.5 C337.23180442 97.55444501 341.46116614 93.61746916 345.8515625 89.84765625 C347.56835536 88.37121439 349.26768249 86.87447188 350.9609375 85.37109375 C384.93750734 55.40173561 384.93750734 55.40173561 403.89453125 55.79296875 C412.64143101 56.65305351 418.42336115 62.0303971 424.09765625 68.328125 C426.21604908 71.30344471 427.16932082 73.87578828 428.1875 77.375 C428.51105469 78.45523438 428.83460938 79.53546875 429.16796875 80.6484375 C433.40212854 97.70434875 430.64054965 114.41330603 424.76953125 130.70703125 C423.89394494 132.91290287 423.89394494 132.91290287 424 135 C425.15185791 135.10022461 426.30371582 135.20044922 427.49047852 135.30371094 C471.827954 139.19404005 471.827954 139.19404005 489 143 C489.82886719 143.18143555 490.65773438 143.36287109 491.51171875 143.54980469 C511.72231607 148.10110587 530.08898763 154.94684165 542 173 C545 178.32258065 545 178.32258065 545 181 C554.49296276 177.67897948 563.71992027 173.86788587 572.92758179 169.82711792 C590.4557551 162.13560847 608.16049323 154.93714801 626 148 C627.12180664 147.56171875 628.24361328 147.1234375 629.39941406 146.671875 C706.45945239 116.8453066 706.45945239 116.8453066 729 126 C734.21017663 129.53865239 738.97672361 133.93017084 741 140 C741.71423862 147.24776563 741.31341548 153.01427103 737 159 C734.12596417 162.45661066 731.07893784 165.72632592 728 169 C726.8681261 170.28564741 725.74262123 171.57694354 724.625 172.875 C716.64251425 181.99269253 708.36841698 190.73073433 699.8125 199.3125 C698.96921143 200.16038086 698.12592285 201.00826172 697.25708008 201.88183594 C692.8863738 206.24181813 688.44902811 210.45434712 683.7668457 214.47827148 C681.35549505 216.5550918 679.02495184 218.71567435 676.6875 220.875 C671.28485174 225.79460543 665.72107694 230.45609939 660 235 C659.04996094 235.75667969 658.09992188 236.51335937 657.12109375 237.29296875 C648.26430534 244.22682736 639.06079628 250.63902471 629.81640625 257.04248047 C626.8076324 259.13370349 623.80940623 261.2394652 620.8125 263.34765625 C618.75003263 264.79431735 616.68753326 266.24093284 614.625 267.6875 C613.65643066 268.37086426 612.68786133 269.05422852 611.68994141 269.75830078 C598.8933039 278.70581777 598.8933039 278.70581777 590 278 C584.66472127 276.6026651 580.54541995 273.14824334 577.34765625 268.703125 C574.9875121 263.9691547 575.38820139 259.16161122 576 254 C580.60344029 243.83406936 592.74996751 237.62422774 601.68164062 231.57714844 C623.43356006 216.77961268 644.03964661 201.29356318 663.35546875 183.42578125 C666.50642522 180.5354652 669.72780955 177.7516147 673 175 C672.67 174.01 672.34 173.02 672 172 C647.42706073 179.70564367 623.7004541 188.94770398 600 199 C598.71537688 199.54323758 597.43071166 200.08637561 596.14599609 200.62939453 C590.50392228 203.01896958 584.87314622 205.43222685 579.25390625 207.875 C574.55154007 209.91563694 569.83198155 211.90592283 565.0947876 213.86425781 C543.63639339 222.29113265 543.63639339 222.29113265 524.20043945 234.41967773 C517.76108233 239.45346841 510.67227898 243.199333 503.5 247.0625 C493.42267428 252.51108932 483.65478213 258.19440465 474.13769531 264.58105469 C469.94361298 267.36497503 465.68658482 270.05111601 461.4375 272.75 C460.03564453 273.64307861 460.03564453 273.64307861 458.60546875 274.55419922 C453.96635414 277.50427739 449.3152041 280.43155464 444.6328125 283.3125 C418.17101712 299.61857301 392.34037125 317.00435625 367 335 C355.06151895 343.46011948 343.09125477 351.73349218 330.58251953 359.33251953 C324.7540226 362.87928797 319.07714631 366.59866882 313.4375 370.4375 C292.72452554 384.46740822 292.72452554 384.46740822 280 383 C273.81334637 381.13614428 269.56406391 377.31526487 266 372 C264.89022099 368.67066298 264.86698463 366.12771692 264.875 362.625 C264.87242187 361.50351562 264.86984375 360.38203125 264.8671875 359.2265625 C264.98529052 356.35735378 265.34217672 353.78791771 266 351 C261.16279797 351.65521722 257.16871404 353.61919432 252.80859375 355.69140625 C252.00365479 356.06814987 251.19871582 356.44489349 250.36938477 356.83305359 C248.63184992 357.64654844 246.89538451 358.46233059 245.15988159 359.28015137 C240.51872839 361.46631677 235.86904936 363.63415343 231.21875 365.80078125 C230.2732579 366.2415097 229.32776581 366.68223816 228.35362244 367.13632202 C219.43004646 371.28531141 210.44372119 375.28441909 201.4375 379.25 C189.60107944 384.46779982 177.83208308 389.8102368 166.125 395.3125 C165.44533173 395.63182495 164.76566345 395.9511499 164.06539917 396.28015137 C160.03777536 398.17461874 156.01217582 400.07298558 152 402 C150.51439575 402.4784436 150.51439575 402.4784436 148.9987793 402.96655273 C144.09385171 406.29254328 142.25023198 411.31392935 139.69921875 416.546875 C139.0964036 417.75054874 138.49192325 418.95338975 137.88591003 420.15545654 C136.58654675 422.74035501 135.29809634 425.33030621 134.01751709 427.92456055 C131.98704102 432.03483198 129.92521936 436.12886107 127.85791016 440.22070312 C123.8566171 448.14824205 119.88514206 456.09047139 115.91876221 464.03552246 C114.43980857 466.99604085 112.95786028 469.95505599 111.47602749 472.91413403 C103.54491136 488.75553152 95.68447525 504.62277101 88.11477661 520.64105225 C87.08302371 522.82431585 86.04718333 525.00557523 85.00952148 527.18603516 C83.26800017 530.84888949 81.5378218 534.51698187 79.8125 538.1875 C79.50562256 538.84032959 79.19874512 539.49315918 78.88256836 540.16577148 C73.4228692 551.79826772 68.18231329 563.52130077 62.99514771 575.27737427 C56.74441388 589.43546392 50.22453424 603.45439837 43.61256409 617.44667053 C41.17354576 622.61484085 38.78075385 627.80352436 36.39941406 632.99853516 C-21.42549296 759.13563194 -21.42549296 759.13563194 -52 772 C-57.62843341 773.47040388 -62.6454843 773.43387077 -68 771 C-74.03961312 766.08454845 -77.25906352 761.82817181 -78.75 754.125 C-82.90971812 708.44373188 -43.93218995 654.39948008 -23.43359375 615.6171875 C-16.0093091 601.5549719 -8.73274952 587.41551588 -1.515625 573.24609375 C8.58775617 553.41298419 18.71357169 533.61105035 29.34423828 514.05419922 C31.01036092 510.98088836 32.66127187 507.89982988 34.30859375 504.81640625 C40.80294976 492.68908155 47.56660663 480.75071181 54.54296875 468.89453125 C58.03538592 462.95712534 61.46345017 456.9841604 64.875 451 C65.39328369 450.09096924 65.91156738 449.18193848 66.44555664 448.24536133 C67.63127769 446.16408795 68.81618483 444.08235784 70 442 C66.46545499 440.82181833 65.44912635 441.47401711 62.21868896 443.04400635 C61.58449036 443.3646405 60.95029175 443.68527466 60.296875 444.015625 C59.62319885 444.34608826 58.94952271 444.67655151 58.25543213 445.01702881 C56.08224799 446.08543876 53.91605233 447.16721553 51.75 448.25 C49.70796755 449.26023337 47.66460348 450.2677316 45.62103939 451.27486229 C44.17022437 451.99060301 42.71996614 452.70747411 41.27041721 453.42577553 C36.26734437 455.9003613 31.24180858 458.32272917 26.19974995 460.71677208 C14.23556336 466.4001691 2.3672394 472.26007431 -9.4659481 478.21067429 C-12.68777139 479.83052902 -15.9111724 481.44720723 -19.13496399 483.06314087 C-28.28282846 487.64908496 -37.42835977 492.23966657 -46.57202148 496.83398438 C-94.88514678 521.10511005 -94.88514678 521.10511005 -116.14389038 530.70547485 C-121.48532422 533.12646751 -126.80276286 535.59967517 -132.125 538.0625 C-134.2706829 539.05240947 -136.41649747 540.04203364 -138.5625 541.03125 C-142.89660684 543.02957907 -147.22991776 545.02961759 -151.5625 547.03125 C-152.64748779 547.53100342 -153.73247559 548.03075684 -154.8503418 548.5456543 C-157.02551826 549.55321199 -159.19632857 550.57025206 -161.36254883 551.59692383 C-166.68201037 554.10235915 -171.96528455 556.39716815 -177.51171875 558.35546875 C-190.78980052 563.24798286 -197.36631206 568.2129152 -203.47583008 581.1171875 C-204.46245107 583.28455668 -205.44036667 585.45590689 -206.41015625 587.63085938 C-209.20929545 593.56269614 -212.61677948 599.13948932 -216 604.75 C-216.68429082 605.89609986 -217.36821198 607.04242051 -218.05175781 608.18896484 C-230.48825873 628.94143927 -243.94919063 649.04552249 -259 668 C-259.50144531 668.63292969 -260.00289063 669.26585937 -260.51953125 669.91796875 C-266.94408144 677.9994589 -273.52774917 685.84447813 -280.57421875 693.390625 C-282.66414891 695.63873023 -284.68842739 697.92150911 -286.6875 700.25 C-302.15968252 717.93768284 -326.48912146 738.23445148 -350.67578125 740.31640625 C-361.42436568 740.64598698 -366.87623083 739.04682556 -374.75 731.9375 C-385.61484071 720.49295178 -385.36638566 703.19028729 -385.25 688.3125 C-385.24656586 687.59146088 -385.24313171 686.87042175 -385.23959351 686.12753296 C-384.78678915 604.44409901 -355.94855044 521.77390289 -317 444 C-316.53142578 443.06172363 -316.06285156 442.12344727 -315.58007812 441.15673828 C-300.93274448 411.94776131 -283.33430905 383.31258615 -264 357 C-263.58524414 356.43361816 -263.17048828 355.86723633 -262.74316406 355.28369141 C-258.216251 349.12114188 -253.53886652 343.11610124 -248.62890625 337.25390625 C-246.93459002 334.90949266 -246.02459959 332.69114049 -245 330 C-245.66531738 329.92483154 -246.33063477 329.84966309 -247.01611328 329.7722168 C-250.05388384 329.42231514 -253.08931916 329.0550734 -256.125 328.6875 C-257.17171875 328.56955078 -258.2184375 328.45160156 -259.296875 328.33007812 C-268.89053006 327.14605108 -274.72629242 324.39933321 -281 317 C-283.80609107 312.4858535 -283.60780013 307.15446087 -283 302 C-280.91595066 294.32118732 -274.63477416 288.88157991 -268.05859375 284.79296875 C-263.09429369 282.88072413 -256.94761367 283.15321145 -252.125 285.25 C-250 287 -250 287 -247.8125 289.1875 C-240.82388397 293.69127478 -231.39331021 290.55771131 -223.74365234 288.91162109 C-181.57102458 279.18577902 -145.40178457 249.37959285 -119.05078125 215.609375 C-117.14590123 213.18564195 -115.1584042 210.85594475 -113.13330078 208.5324707 C-97.1085129 190.0556018 -83.75646595 169.06921919 -71.125 148.1875 C-70.53090332 147.21095459 -69.93680664 146.23440918 -69.32470703 145.22827148 C-59.93295747 129.51480015 -53.32513378 113.4793523 -47.25 96.25 C-46.45902651 94.02962514 -45.6675986 91.80941212 -44.87573242 89.58935547 C-38.74677546 72.35020908 -32.91007212 55.02025398 -27.19726562 37.63964844 C-25.50729555 32.50219455 -23.80588646 27.36958415 -22.0625 22.25 C-21.81604736 21.49992676 -21.56959473 20.74985352 -21.31567383 19.97705078 C-18.00363278 10.35287437 -11.77358716 -1.96226453 0 0 Z M255 78 C253.28162079 80.08792313 251.69458682 82.17818077 250.125 84.375 C249.39253052 85.38723633 249.39253052 85.38723633 248.64526367 86.41992188 C244.56762071 92.10197925 240.68116894 97.90395833 236.83447266 103.74389648 C232.66712001 110.05462964 228.34576551 116.24869867 224 122.4375 C218.10459635 130.859406 212.45938857 139.3884793 207.04296875 148.125 C204.77711809 151.77954879 202.45695998 155.39486898 200.11328125 159 C199.46053223 160.00861084 198.8077832 161.01722168 198.13525391 162.05639648 C196.85574772 164.03114701 195.57043367 166.00214885 194.27880859 167.96899414 C193.70598145 168.85707764 193.1331543 169.74516113 192.54296875 170.66015625 C192.02758545 171.45043213 191.51220215 172.24070801 190.98120117 173.05493164 C190.49550659 174.01774048 190.49550659 174.01774048 190 175 C190.33 175.66 190.66 176.32 191 177 C194.90952114 176.36337931 198.20182486 175.17408922 201.81640625 173.56640625 C202.91017578 173.08236328 204.00394531 172.59832031 205.13085938 172.09960938 C206.82952148 171.33874023 206.82952148 171.33874023 208.5625 170.5625 C209.69880859 170.05912109 210.83511719 169.55574219 212.00585938 169.03710938 C215.00940474 167.70279099 218.01114848 166.36691783 221 165 C221.72300293 164.71809814 222.44600586 164.43619629 223.19091797 164.14575195 C225.7178628 162.54535356 226.39133681 160.80818571 227.62890625 158.1015625 C228.10094482 157.07933594 228.5729834 156.05710937 229.05932617 155.00390625 C229.55537354 153.88886719 230.0514209 152.77382813 230.5625 151.625 C231.34814331 149.88669922 231.34814331 149.88669922 232.1496582 148.11328125 C239.97624337 130.5843664 246.81598307 112.66713417 253.1875 94.5625 C253.57446045 93.47259766 253.9614209 92.38269531 254.36010742 91.25976562 C254.88374878 89.74092773 254.88374878 89.74092773 255.41796875 88.19140625 C255.87852661 86.86411499 255.87852661 86.86411499 256.34838867 85.51000977 C257.02519135 82.9029628 257.12186249 80.68127575 257 78 C256.34 78 255.68 78 255 78 Z M388.25170898 100.92114258 C387.67235596 101.40736084 387.09300293 101.8935791 386.49609375 102.39453125 C385.51672852 103.20253174 385.51672852 103.20253174 384.51757812 104.02685547 C383.83115234 104.61611816 383.14472656 105.20538086 382.4375 105.8125 C381.72658203 106.40691895 381.01566406 107.00133789 380.28320312 107.61376953 C375.21347843 111.88090231 370.26778112 116.2745702 365.40625 120.77734375 C362.54194925 123.42310207 359.6090129 125.98121133 356.65625 128.52734375 C355.04107155 129.9634812 353.51173949 131.45599777 352 133 C352.33 133.99 352.66 134.98 353 136 C357.59782787 136.05374085 362.19071929 136.05206727 366.78857422 136.00341797 C368.8642892 136.00020975 370.92961242 136.05888133 373.00390625 136.12890625 C379.40974765 136.30123829 379.40974765 136.30123829 384.76953125 133.33984375 C386.24174175 130.61508591 387.10036818 127.96775095 388 125 C388.53152149 123.51207945 389.06978806 122.02655826 389.61328125 120.54296875 C393.21275863 111.03145789 393.21275863 111.03145789 394 101 C391.08439134 99.92660319 391.08439134 99.92660319 388.25170898 100.92114258 Z M406 172 C400.35767077 182.54119862 394.89859102 193.16295937 389.58682251 203.87405396 C382.09581924 218.97133595 374.41625995 233.95230861 365.77734375 248.43359375 C365.25881836 249.30733643 364.74029297 250.1810791 364.20605469 251.08129883 C363.22005867 252.73292141 362.22261562 254.37778349 361.21191406 256.0144043 C360.77459961 256.7444165 360.33728516 257.47442871 359.88671875 258.2265625 C359.30216919 259.17909912 359.30216919 259.17909912 358.70581055 260.15087891 C357.82035 262.4706569 358.19304575 263.69614721 359 266 C368.73976963 261.79235557 378.40380841 257.46208595 387.99282837 252.92044067 C401.08491365 246.72377096 414.23765023 240.66854298 427.43383789 234.69726562 C428.81918658 234.07034212 430.20452182 233.44338888 431.58984375 232.81640625 C432.27859085 232.50474518 432.96733795 232.19308411 433.67695618 231.87197876 C438.66996064 229.60983655 443.65152803 227.3236379 448.62890625 225.02734375 C465.39793193 217.29879508 482.23906058 209.79604986 499.24755859 202.60742188 C499.96329041 202.30416489 500.67902222 202.0009079 501.41644287 201.6884613 C502.75795059 201.12059691 504.10039573 200.55494033 505.44390869 199.99183655 C508.44333476 198.85188073 508.44333476 198.85188073 511 197 C511.06355578 193.69509964 511.04944344 191.10826181 508.67578125 188.6015625 C489.94719955 175.84500143 461.68531255 175.1567602 440 173 C439.27699707 172.92652344 438.55399414 172.85304688 437.80908203 172.77734375 C427.22782832 171.73719959 416.61894209 171.90385264 406 172 Z M327 175 C325.93281738 175.10683105 324.86563477 175.21366211 323.76611328 175.32373047 C311.56411825 176.34587633 311.56411825 176.34587633 301.67578125 182.92578125 C301.12277344 183.61027344 300.56976562 184.29476562 300 185 C299.29230469 185.75667969 298.58460938 186.51335937 297.85546875 187.29296875 C293.09181263 192.39746568 288.70472379 197.78859371 284.31640625 203.21484375 C281.95399582 206.05531362 279.50170972 208.78175899 277 211.5 C272.10505966 216.82617929 267.53626052 222.36794653 263 228 C261.5847535 229.73032921 260.16806281 231.4594781 258.75 233.1875 C258.0075 234.09628906 257.265 235.00507813 256.5 235.94140625 C255.18372271 237.55178924 253.86705019 239.16185388 252.546875 240.76904297 C245.29146885 249.60240834 238.2238803 258.55138809 231.3125 267.65625 C228.51280088 271.34041464 225.67177212 274.99035613 222.81811523 278.6328125 C210.58328558 294.25854961 198.96217137 310.29297603 187.66503906 326.60742188 C186.02685088 328.96141662 184.37134988 331.30226914 182.7109375 333.640625 C181.70296611 335.07280485 180.69514539 336.50509076 179.6875 337.9375 C178.99394409 338.90369263 178.99394409 338.90369263 178.28637695 339.8894043 C175.96049548 343.22030178 174.410194 345.9212785 174 350 C179.34073363 349.42053618 183.50934859 347.59582353 188.2890625 345.30859375 C189.09249588 344.93189545 189.89592926 344.55519714 190.72370911 344.16708374 C192.45558652 343.35450137 194.18597416 342.53873771 195.91500854 341.72012329 C200.54395814 339.5292682 205.18423852 337.36268434 209.82421875 335.1953125 C210.76703201 334.75437759 211.70984528 334.31344269 212.68122864 333.85914612 C221.54747042 329.72278154 230.48221693 325.7513676 239.4375 321.8125 C251.61645875 316.44691516 263.71330275 310.92783561 275.75 305.25 C276.46896454 304.91102692 277.18792908 304.57205383 277.92868042 304.22280884 C281.2126327 302.67267176 284.49085943 301.11296801 287.75830078 299.52832031 C291 298 291 298 293.48779297 297.05761719 C300.18955983 294.41902581 302.46268977 288.91801969 305.625 282.75 C306.84539757 280.47014366 308.06811274 278.19152664 309.29296875 275.9140625 C309.90833496 274.75680664 310.52370117 273.59955078 311.15771484 272.40722656 C313.95408704 267.23545737 316.94265044 262.18352385 319.9375 257.125 C332.09461359 236.40675494 343.56712294 215.35344446 354.484375 193.95947266 C355.87162557 191.25066927 357.27602625 188.5517044 358.6875 185.85546875 C359.4380147 184.40391184 360.18806095 182.95211256 360.9375 181.5 C361.27386475 180.86553955 361.61022949 180.2310791 361.95678711 179.57739258 C362.94968766 177.68786917 362.94968766 177.68786917 364 175 C363.67 174.01 363.34 173.02 363 172 C351.0258988 172 338.90761438 173.77397751 327 175 Z M190.0625 218.84375 C189.26320068 219.25778076 188.46390137 219.67181152 187.64038086 220.09838867 C186.76905518 220.56092041 185.89772949 221.02345215 185 221.5 C183.63210327 222.22183472 183.63210327 222.22183472 182.23657227 222.95825195 C174.3551922 227.17206564 166.62742837 231.63695399 158.9375 236.1875 C157.83341797 236.83976562 156.72933594 237.49203125 155.59179688 238.1640625 C153.43239061 239.45322156 151.2816657 240.75704031 149.14013672 242.07568359 C147.0859498 243.33451591 145.00960211 244.55804781 142.91064453 245.74072266 C133.75465341 251.2071841 128.75708203 258.28230662 123 267 C121.87687792 268.67529805 120.75349354 270.35042027 119.62988281 272.02539062 C115.92563241 277.57686524 112.27312448 283.16154599 108.625 288.75 C103.76734615 296.17815171 98.89887587 303.59895465 94 311 C93.09670959 312.36547974 93.09670959 312.36547974 92.1751709 313.75854492 C90.42591358 316.39252346 88.6644903 319.0178861 86.8984375 321.640625 C86.11589096 322.82093292 86.11589096 322.82093292 85.3175354 324.02508545 C81.94409173 328.99700362 78.90391414 333.03202862 73 335 C67.76185245 335.4217984 63.86062409 335.02526004 59 333 C54.13568846 333.28158024 52.08085859 335.48457653 48.796875 338.91796875 C48.31478577 339.41283279 47.83269653 339.90769684 47.33599854 340.41755676 C45.79738906 341.99826695 44.27256494 343.5913404 42.75 345.1875 C24.73471708 364.02218586 24.73471708 364.02218586 13.6875 364.3125 C8.58561152 364.2520829 5.91309406 363.45808313 2 360 C0.978283 358.89665097 -0.04253164 357.79246573 -1.0625 356.6875 C-3.61320069 353.75606086 -3.61320069 353.75606086 -6.25 353.96875 C-10.21301922 355.45488221 -12.83814267 357.98372148 -15.9375 360.8125 C-17.2768335 362.00578128 -18.61668912 363.19847676 -19.95703125 364.390625 C-20.6320166 364.99583984 -21.30700195 365.60105469 -22.00244141 366.22460938 C-24.99992402 368.88871272 -28.06439435 371.47152934 -31.125 374.0625 C-36.37794183 378.53813389 -41.4828688 383.15274078 -46.53222656 387.85620117 C-49.27456776 390.41064744 -52.03340157 392.93147032 -54.875 395.375 C-59.49249364 399.36639281 -63.91369125 403.56820205 -68.36621094 407.74121094 C-72.69417193 411.7934233 -77.06858248 415.78612086 -81.48828125 419.73828125 C-86.14331292 423.92998162 -90.72979818 428.19639373 -95.32666016 432.45166016 C-98.04870989 434.97037031 -100.7744926 437.4850327 -103.5 440 C-106.76239454 443.01098786 -110.02443595 446.02235528 -113.28515625 449.03515625 C-120.507541 455.70750962 -127.73842109 462.37029881 -135 469 C-135.83015625 469.75925781 -136.6603125 470.51851562 -137.515625 471.30078125 C-138.71445312 472.38939453 -138.71445312 472.38939453 -139.9375 473.5 C-140.74058594 474.23734375 -141.54367187 474.9746875 -142.37109375 475.734375 C-145 478 -145 478 -148.16015625 480.265625 C-158.20220602 487.5946838 -164.5685601 497.98855977 -168 510 C-167.505 511.485 -167.505 511.485 -167 513 C-146.80736274 506.63094802 -127.341191 495.74518965 -108.33984375 486.46484375 C-107.52865585 486.06929291 -106.71746796 485.67374207 -105.88169861 485.26620483 C-83.16793539 474.18506524 -60.58939299 462.83177405 -38 451.5 C-30.6254145 447.80072133 -23.25007803 444.10295356 -15.87304688 440.40855408 C-12.9952342 438.96649867 -10.11866969 437.52197749 -7.2421875 436.07727051 C5.76275724 429.55668353 18.85824359 423.23971151 32 417 C34.32271908 415.89457977 36.64518673 414.78863287 38.96762276 413.68261814 C42.43439382 412.03343459 45.90442185 410.39115339 49.375 408.75 C50.11939331 408.39781403 50.86378662 408.04562805 51.6307373 407.68276978 C65.14584326 401.29406017 78.73128747 395.06824402 92.36367798 388.93414307 C94.19611363 388.10564682 96.02346312 387.26592925 97.85058594 386.42578125 C99.70585684 385.58587566 101.57484838 384.77360657 103.46972656 384.02734375 C109.56442515 381.48668304 112.00739137 377.20509481 115.25 371.625 C116.48074829 369.58295877 117.71669682 367.54404535 118.95703125 365.5078125 C119.94050537 363.89181152 119.94050537 363.89181152 120.94384766 362.24316406 C122.94433924 359.08779358 125.06043659 356.07259829 127.26171875 353.0546875 C139.84947606 335.5689283 149.52181713 316.8213989 159.0625 297.5625 C159.56069307 296.55692551 159.56069307 296.55692551 160.06895065 295.53103638 C167.29016019 280.9393186 174.3672439 266.27951803 181.36691284 251.58027649 C185.20117244 243.54074542 189.19587169 235.59193122 193.27148438 227.671875 C193.76326172 226.7025 194.25503906 225.733125 194.76171875 224.734375 C195.19444092 223.89100586 195.62716309 223.04763672 196.07299805 222.17871094 C197.19575808 219.93453495 197.19575808 219.93453495 197 217 C193.8513238 217 192.78596465 217.43130139 190.0625 218.84375 Z M-155.375 298.9375 C-158.45087358 301.35425781 -161.6773892 303.38185106 -165 305.4375 C-170.30662035 308.74753478 -174.97110532 312.34348541 -179.5234375 316.6640625 C-181.53315185 318.55966057 -183.5740451 320.36455181 -185.66796875 322.1640625 C-197.72153303 332.66804351 -209.34664743 344.23732788 -219 357 C-219.90161258 358.12923058 -220.80543491 359.25669882 -221.7109375 360.3828125 C-237.02814225 379.65850713 -250.59195885 400.75158772 -263 422 C-263.46245117 422.79035645 -263.92490234 423.58071289 -264.40136719 424.39501953 C-267.99576255 430.56248473 -271.51274727 436.77143679 -275 443 C-275.52352051 443.93054199 -276.04704102 444.86108398 -276.58642578 445.81982422 C-295.20621062 479.04313972 -309.65530879 514.01632142 -322 550 C-322.37334473 551.07137207 -322.74668945 552.14274414 -323.13134766 553.24658203 C-336.82011896 592.75502077 -347.25820306 634.66809593 -348.61254883 676.57885742 C-348.68794792 678.8258486 -348.77852165 681.07193699 -348.86914062 683.31835938 C-348.91760125 684.76038556 -348.9651597 686.20244241 -349.01171875 687.64453125 C-349.05772217 688.93721924 -349.10372559 690.22990723 -349.15112305 691.56176758 C-349.00498051 694.88668735 -348.45165345 697.03604498 -347 700 C-342.4226683 699.45037668 -339.09151192 697.4871883 -335.3125 695 C-334.69383057 694.59555664 -334.07516113 694.19111328 -333.43774414 693.77441406 C-327.79936841 690.0052626 -322.84740814 685.74395736 -318 681 C-317.23623047 680.26475098 -317.23623047 680.26475098 -316.45703125 679.51464844 C-310.01881309 673.30964364 -303.91058968 666.99888295 -298.35546875 659.9765625 C-296.61398809 657.77588544 -294.85165773 655.61187264 -293.05078125 653.4609375 C-279.41367125 637.10350925 -267.71767531 619.45776759 -256.484375 601.38769531 C-255.55935745 599.89975589 -254.63035937 598.41427455 -253.6953125 596.93261719 C-252.63782251 595.25500513 -251.59907976 593.56561223 -250.5625 591.875 C-249.76005859 590.57175781 -249.76005859 590.57175781 -248.94140625 589.2421875 C-247.85684774 586.65904814 -247.99888451 585.57091196 -249 583 C-249.83402344 582.85304688 -250.66804688 582.70609375 -251.52734375 582.5546875 C-260.82029883 580.70248339 -268.19519433 578.11270762 -274 570.3125 C-277.9207263 563.81879706 -278.21192442 556.19263001 -276.4921875 548.82421875 C-269.82486371 533.70946046 -253.32477004 521.32859605 -240.80078125 511.26953125 C-237.71804503 508.77152603 -234.70301329 506.20320739 -231.6875 503.625 C-226.70583765 499.38168986 -221.61912221 495.29872089 -216.45751953 491.27709961 C-211.78415622 487.63125466 -207.16312429 483.92467185 -202.5625 480.1875 C-201.5873645 479.39690186 -201.5873645 479.39690186 -200.5925293 478.59033203 C-199.3278255 477.56096351 -198.07135999 476.52138755 -196.82348633 475.47167969 C-195 474 -195 474 -193.22924805 472.86425781 C-186.11914974 467.92588815 -183.76581902 459.09979301 -180.6875 451.375 C-179.9927893 449.67303501 -179.29629442 447.97179735 -178.59814453 446.27124023 C-177.12605958 442.67669121 -175.66540105 439.07779671 -174.21337891 435.47509766 C-172.07919202 430.1844663 -169.90921072 424.90912844 -167.73046875 419.63671875 C-152.02757437 381.58330909 -136.3542442 343.45573557 -122.06103516 304.84667969 C-120.97957205 301.9451933 -119.87344928 299.0540732 -118.76171875 296.1640625 C-118.09092644 294.40112513 -117.42033858 292.63810995 -116.75 290.875 C-116.44908447 290.10317383 -116.14816895 289.33134766 -115.83813477 288.53613281 C-114.18044959 284.34099746 -114.18044959 284.34099746 -115 280 C-129.22200862 279.152506 -145.01117624 290.21006947 -155.375 298.9375 Z M-55 341 C-56.7143618 342.95927063 -58.38405168 344.95880212 -60 347 C-59.01 347.99 -58.02 348.98 -57 350 C-54.35426499 347.77122275 -54.35426499 347.77122275 -52 345 C-52.04497842 342.72476911 -52.04497842 342.72476911 -53 341 C-53.66 341 -54.32 341 -55 341 Z M-112 378 C-113.59718478 381.64261542 -115.18169397 385.29045272 -116.75463867 388.94360352 C-117.29154063 390.18566592 -117.83188785 391.42624494 -118.37573242 392.6652832 C-119.15666509 394.44609497 -119.92422893 396.23275053 -120.69140625 398.01953125 C-121.15748291 399.09307861 -121.62355957 400.16662598 -122.10375977 401.27270508 C-123.31584406 404.04679332 -123.31584406 404.04679332 -122 407 C-118.08670547 406.45354896 -116.41281015 404.70064387 -113.75 401.875 C-110.23191282 398.22338806 -106.62050692 394.85042244 -102.7265625 391.60546875 C-100.8372885 389.84870039 -99.34410977 388.20694152 -98 386 C-98.67011673 382.97632507 -98.67011673 382.97632507 -100.671875 381.8671875 C-101.35765625 381.53976562 -102.0434375 381.21234375 -102.75 380.875 C-103.42546875 380.54242188 -104.1009375 380.20984375 -104.796875 379.8671875 C-107.17992955 378.92917667 -109.48816357 378.47401957 -112 378 Z " fill="#000000" transform="translate(599,109)"/>
</svg>
